<svg width="512" height="512" viewBox="0 0 512 512" xmlns="http://www.w3.org/2000/svg">
  <defs>
    <linearGradient id="grad1" x1="0%" y1="0%" x2="100%" y2="100%">
      <stop offset="0%" style="stop-color:#4F46E5;stop-opacity:1" />
      <stop offset="100%" style="stop-color:#7C3AED;stop-opacity:1" />
    </linearGradient>
    <linearGradient id="grad2" x1="0%" y1="0%" x2="100%" y2="100%">
      <stop offset="0%" style="stop-color:#10B981;stop-opacity:1" />
      <stop offset="100%" style="stop-color:#059669;stop-opacity:1" />
    </linearGradient>
  </defs>
  
  <!-- Background circle -->
  <circle cx="256" cy="256" r="240" fill="url(#grad1)" stroke="#ffffff" stroke-width="8"/>
  
  <!-- Document/Exam paper -->
  <rect x="160" y="140" width="192" height="240" rx="12" fill="white" stroke="#E5E7EB" stroke-width="2"/>
  
  <!-- Document lines -->
  <rect x="180" y="170" width="152" height="4" rx="2" fill="#6B7280"/>
  <rect x="180" y="190" width="140" height="4" rx="2" fill="#9CA3AF"/>
  <rect x="180" y="210" width="120" height="4" rx="2" fill="#9CA3AF"/>
  <rect x="180" y="230" width="152" height="4" rx="2" fill="#9CA3AF"/>
  <rect x="180" y="250" width="100" height="4" rx="2" fill="#9CA3AF"/>
  <rect x="180" y="270" width="130" height="4" rx="2" fill="#9CA3AF"/>
  <rect x="180" y="290" width="110" height="4" rx="2" fill="#9CA3AF"/>
  <rect x="180" y="310" width="140" height="4" rx="2" fill="#9CA3AF"/>
  
  <!-- Checkmark -->
  <circle cx="320" cy="340" r="20" fill="url(#grad2)"/>
  <path d="M310 340 L315 345 L330 330" stroke="white" stroke-width="3" fill="none" stroke-linecap="round" stroke-linejoin="round"/>
  
  <!-- Pencil -->
  <path d="M140 320 L180 280 L190 290 L150 330 Z" fill="#F59E0B"/>
  <path d="M180 280 L190 290 L185 295 L175 285 Z" fill="#D97706"/>
  <circle cx="145" cy="325" r="3" fill="#DC2626"/>
  
  <!-- Small decorative elements -->
  <circle cx="120" cy="180" r="8" fill="#FBBF24" opacity="0.8"/>
  <circle cx="380" cy="200" r="6" fill="#F87171" opacity="0.8"/>
  <circle cx="100" cy="280" r="5" fill="#34D399" opacity="0.8"/>
</svg>